<svg xmlns="http://www.w3.org/2000/svg" width="1280" height="720" viewBox="0 0 1280 720">
  <defs>
    <linearGradient id="bg" x1="0" y1="0" x2="1" y2="1">
      <stop offset="0%" stop-color="#e8faf2"/>
      <stop offset="100%" stop-color="#eaf7ff"/>
    </linearGradient>
    <linearGradient id="hero" x1="0" y1="0" x2="1" y2="0">
      <stop offset="0%" stop-color="#0f9f74"/>
      <stop offset="100%" stop-color="#0f766e"/>
    </linearGradient>
  </defs>

  <rect width="1280" height="720" fill="url(#bg)"/>
  <rect x="40" y="32" width="1200" height="656" rx="18" fill="#ffffff" stroke="#c8dfd9"/>

  <rect x="74" y="74" width="1132" height="84" rx="14" fill="url(#hero)"/>
  <text x="106" y="124" fill="#ffffff" font-family="Arial, sans-serif" font-size="34" font-weight="700">AI Farming Advisory Chat</text>

  <rect x="74" y="182" width="1132" height="430" rx="14" fill="#f7fbf9" stroke="#dbe9e3"/>

  <rect x="110" y="224" width="608" height="88" rx="22" fill="#ffffff" stroke="#d4e1db"/>
  <text x="136" y="262" fill="#2f4b43" font-family="Arial, sans-serif" font-size="25" font-weight="600">Upload crop photo for disease check.</text>
  <text x="136" y="292" fill="#4d635c" font-family="Arial, sans-serif" font-size="20">Open Crop Diagnosis | Dashboard Advisory</text>

  <rect x="546" y="336" width="620" height="82" rx="22" fill="#0f9f74"/>
  <text x="578" y="384" fill="#ffffff" font-family="Arial, sans-serif" font-size="24" font-weight="600">How to check wheat mandi price today?</text>

  <rect x="110" y="442" width="664" height="104" rx="22" fill="#ffffff" stroke="#d4e1db"/>
  <text x="136" y="484" fill="#2f4b43" font-family="Arial, sans-serif" font-size="24" font-weight="600">Choose crop and state to compare mandi rates.</text>
  <text x="136" y="518" fill="#4d635c" font-family="Arial, sans-serif" font-size="20">Check Mandi Prices | Go to Dashboard</text>

  <rect x="74" y="626" width="1132" height="40" rx="12" fill="#f6f8f7" stroke="#d9e5df"/>
  <circle cx="100" cy="646" r="8" fill="#10b981"/>
  <text x="122" y="652" fill="#5a6e67" font-family="Arial, sans-serif" font-size="18">Type your farming question and send</text>
</svg>
